{"asset":{"version":"2.0","generator":"Blockbench 4.12.2 glTF exporter"},"scenes":[{"nodes":[23],"name":"blockbench_export"}],"scene":0,"nodes":[{"translation":[0,1.25,0],"name":"cuboid","mesh":0},{"translation":[0,2,-0.25],"name":"sphere","mesh":1},{"translation":[0.3125,2,0],"name":"sphere","mesh":2},{"translation":[-0.3125,2,0],"name":"sphere","mesh":3},{"translation":[-0.3125,1.0625,0],"name":"sphere","mesh":4},{"translation":[0.3125,1.0625,0],"name":"sphere","mesh":5},{"translation":[0.4375,1.5,0],"name":"sphere","mesh":6},{"translation":[0.4375,1.5,-0.4375],"name":"sphere","mesh":7},{"translation":[-0.4375,1.5,-0.4375],"name":"sphere","mesh":8},{"translation":[-0.4375,1.5,0],"name":"sphere","mesh":9},{"translation":[0.3125,0.5625,-0.1875],"name":"sphere","mesh":10},{"translation":[-0.3125,0.5625,-0.1875],"name":"sphere","mesh":11},{"rotation":[0.17364817766693033,0,0,0.984807753012208],"translation":[0.3125,0.8125,-0.09375],"name":"cuboid","mesh":12},{"rotation":[-0.17364817766693033,0,0,0.984807753012208],"translation":[0.3125,0.375,-0.09375],"name":"cuboid","mesh":13},{"rotation":[-0.17364817766693033,0,0,0.984807753012208],"translation":[-0.3125,0.375,-0.09375],"name":"cuboid","mesh":14},{"rotation":[0.17364817766693033,0,0,0.984807753012208],"translation":[-0.3125,0.8125,-0.09375],"name":"cuboid","mesh":15},{"rotation":[-0.17364817766693033,0,0,0.984807753012208],"translation":[0.3125,-0.125,0.0625],"name":"cuboid","mesh":16},{"rotation":[-0.17364817766693033,0,0,0.984807753012208],"translation":[-0.3125,-0.125,0.0625],"name":"cuboid","mesh":17},{"translation":[0.4375,1.5,0],"name":"beveled_cuboid","mesh":18},{"rotation":[0.7071067811865475,0,0,0.7071067811865476],"translation":[0.4375,1.5,-0.4375],"name":"beveled_cuboid","mesh":19},{"rotation":[0.7071067811865475,0,0,0.7071067811865476],"translation":[-0.4375,1.5,-0.4375],"name":"beveled_cuboid","mesh":20},{"translation":[-0.4375,1.5,0],"name":"beveled_cuboid","mesh":21},{"name":"root","children":[0,1,2,3,4,5,6,7,8,9,10,11,12,13,14,15,16,17,18,19,20,21]},{"children":[22]}],"bufferViews":[{"buffer":0,"byteOffset":0,"byteLength":288,"target":34962,"byteStride":12},{"buffer":0,"byteOffset":288,"byteLength":288,"target":34962,"byteStride":12},{"buffer":0,"byteOffset":576,"byteLength":192,"target":34962,"byteStride":8},{"buffer":0,"byteOffset":768,"byteLength":72,"target":34963},{"buffer":0,"byteOffset":840,"byteLength":3168,"target":34962,"byteStride":12},{"buffer":0,"byteOffset":4008,"byteLength":3168,"target":34962,"byteStride":12},{"buffer":0,"byteOffset":7176,"byteLength":2112,"target":34962,"byteStride":8},{"buffer":0,"byteOffset":9288,"byteLength":720,"target":34963},{"buffer":0,"byteOffset":10008,"byteLength":3168,"target":34962,"byteStride":12},{"buffer":0,"byteOffset":13176,"byteLength":3168,"target":34962,"byteStride":12},{"buffer":0,"byteOffset":16344,"byteLength":2112,"target":34962,"byteStride":8},{"buffer":0,"byteOffset":18456,"byteLength":720,"target":34963},{"buffer":0,"byteOffset":19176,"byteLength":3168,"target":34962,"byteStride":12},{"buffer":0,"byteOffset":22344,"byteLength":3168,"target":34962,"byteStride":12},{"buffer":0,"byteOffset":25512,"byteLength":2112,"target":34962,"byteStride":8},{"buffer":0,"byteOffset":27624,"byteLength":720,"target":34963},{"buffer":0,"byteOffset":28344,"byteLength":3168,"target":34962,"byteStride":12},{"buffer":0,"byteOffset":31512,"byteLength":3168,"target":34962,"byteStride":12},{"buffer":0,"byteOffset":34680,"byteLength":2112,"target":34962,"byteStride":8},{"buffer":0,"byteOffset":36792,"byteLength":720,"target":34963},{"buffer":0,"byteOffset":37512,"byteLength":3168,"target":34962,"byteStride":12},{"buffer":0,"byteOffset":40680,"byteLength":3168,"target":34962,"byteStride":12},{"buffer":0,"byteOffset":43848,"byteLength":2112,"target":34962,"byteStride":8},{"buffer":0,"byteOffset":45960,"byteLength":720,"target":34963},{"buffer":0,"byteOffset":46680,"byteLength":3168,"target":34962,"byteStride":12},{"buffer":0,"byteOffset":49848,"byteLength":3168,"target":34962,"byteStride":12},{"buffer":0,"byteOffset":53016,"byteLength":2112,"target":34962,"byteStride":8},{"buffer":0,"byteOffset":55128,"byteLength":720,"target":34963},{"buffer":0,"byteOffset":55848,"byteLength":3168,"target":34962,"byteStride":12},{"buffer":0,"byteOffset":59016,"byteLength":3168,"target":34962,"byteStride":12},{"buffer":0,"byteOffset":62184,"byteLength":2112,"target":34962,"byteStride":8},{"buffer":0,"byteOffset":64296,"byteLength":720,"target":34963},{"buffer":0,"byteOffset":65016,"byteLength":3168,"target":34962,"byteStride":12},{"buffer":0,"byteOffset":68184,"byteLength":3168,"target":34962,"byteStride":12},{"buffer":0,"byteOffset":71352,"byteLength":2112,"target":34962,"byteStride":8},{"buffer":0,"byteOffset":73464,"byteLength":720,"target":34963},{"buffer":0,"byteOffset":74184,"byteLength":3168,"target":34962,"byteStride":12},{"buffer":0,"byteOffset":77352,"byteLength":3168,"target":34962,"byteStride":12},{"buffer":0,"byteOffset":80520,"byteLength":2112,"target":34962,"byteStride":8},{"buffer":0,"byteOffset":82632,"byteLength":720,"target":34963},{"buffer":0,"byteOffset":83352,"byteLength":3168,"target":34962,"byteStride":12},{"buffer":0,"byteOffset":86520,"byteLength":3168,"target":34962,"byteStride":12},{"buffer":0,"byteOffset":89688,"byteLength":2112,"target":34962,"byteStride":8},{"buffer":0,"byteOffset":91800,"byteLength":720,"target":34963},{"buffer":0,"byteOffset":92520,"byteLength":3168,"target":34962,"byteStride":12},{"buffer":0,"byteOffset":95688,"byteLength":3168,"target":34962,"byteStride":12},{"buffer":0,"byteOffset":98856,"byteLength":2112,"target":34962,"byteStride":8},{"buffer":0,"byteOffset":100968,"byteLength":720,"target":34963},{"buffer":0,"byteOffset":101688,"byteLength":288,"target":34962,"byteStride":12},{"buffer":0,"byteOffset":101976,"byteLength":288,"target":34962,"byteStride":12},{"buffer":0,"byteOffset":102264,"byteLength":192,"target":34962,"byteStride":8},{"buffer":0,"byteOffset":102456,"byteLength":72,"target":34963},{"buffer":0,"byteOffset":102528,"byteLength":288,"target":34962,"byteStride":12},{"buffer":0,"byteOffset":102816,"byteLength":288,"target":34962,"byteStride":12},{"buffer":0,"byteOffset":103104,"byteLength":192,"target":34962,"byteStride":8},{"buffer":0,"byteOffset":103296,"byteLength":72,"target":34963},{"buffer":0,"byteOffset":103368,"byteLength":288,"target":34962,"byteStride":12},{"buffer":0,"byteOffset":103656,"byteLength":288,"target":34962,"byteStride":12},{"buffer":0,"byteOffset":103944,"byteLength":192,"target":34962,"byteStride":8},{"buffer":0,"byteOffset":104136,"byteLength":72,"target":34963},{"buffer":0,"byteOffset":104208,"byteLength":288,"target":34962,"byteStride":12},{"buffer":0,"byteOffset":104496,"byteLength":288,"target":34962,"byteStride":12},{"buffer":0,"byteOffset":104784,"byteLength":192,"target":34962,"byteStride":8},{"buffer":0,"byteOffset":104976,"byteLength":72,"target":34963},{"buffer":0,"byteOffset":105048,"byteLength":288,"target":34962,"byteStride":12},{"buffer":0,"byteOffset":105336,"byteLength":288,"target":34962,"byteStride":12},{"buffer":0,"byteOffset":105624,"byteLength":192,"target":34962,"byteStride":8},{"buffer":0,"byteOffset":105816,"byteLength":72,"target":34963},{"buffer":0,"byteOffset":105888,"byteLength":288,"target":34962,"byteStride":12},{"buffer":0,"byteOffset":106176,"byteLength":288,"target":34962,"byteStride":12},{"buffer":0,"byteOffset":106464,"byteLength":192,"target":34962,"byteStride":8},{"buffer":0,"byteOffset":106656,"byteLength":72,"target":34963},{"buffer":0,"byteOffset":106728,"byteLength":1152,"target":34962,"byteStride":12},{"buffer":0,"byteOffset":107880,"byteLength":1152,"target":34962,"byteStride":12},{"buffer":0,"byteOffset":109032,"byteLength":768,"target":34962,"byteStride":8},{"buffer":0,"byteOffset":109800,"byteLength":264,"target":34963},{"buffer":0,"byteOffset":110064,"byteLength":1152,"target":34962,"byteStride":12},{"buffer":0,"byteOffset":111216,"byteLength":1152,"target":34962,"byteStride":12},{"buffer":0,"byteOffset":112368,"byteLength":768,"target":34962,"byteStride":8},{"buffer":0,"byteOffset":113136,"byteLength":264,"target":34963},{"buffer":0,"byteOffset":113400,"byteLength":1152,"target":34962,"byteStride":12},{"buffer":0,"byteOffset":114552,"byteLength":1152,"target":34962,"byteStride":12},{"buffer":0,"byteOffset":115704,"byteLength":768,"target":34962,"byteStride":8},{"buffer":0,"byteOffset":116472,"byteLength":264,"target":34963},{"buffer":0,"byteOffset":116736,"byteLength":1152,"target":34962,"byteStride":12},{"buffer":0,"byteOffset":117888,"byteLength":1152,"target":34962,"byteStride":12},{"buffer":0,"byteOffset":119040,"byteLength":768,"target":34962,"byteStride":8},{"buffer":0,"byteOffset":119808,"byteLength":264,"target":34963}],"buffers":[{"byteLength":120072,"uri":"data:application/octet-stream;base64,"}],"accessors":[{"bufferView":0,"componentType":5126,"count":24,"max":[0.25,0.75,0.25],"min":[-0.25,-0.25,-0.25],"type":"VEC3"},{"bufferView":1,"componentType":5126,"count":24,"max":[1,1,1],"min":[-1,-1,-1],"type":"VEC3"},{"bufferView":2,"componentType":5126,"count":24,"max":[1,1],"min":[0,0],"type":"VEC2"},{"bufferView":3,"componentType":5123,"count":36,"max":[23],"min":[0],"type":"SCALAR"},{"bufferView":4,"componentType":5126,"count":264,"max":[0.25,0.25,0.25],"min":[-0.25,-0.25,-0.25],"type":"VEC3"},{"bufferView":5,"componentType":5126,"count":264,"max":[0.9659258127212524,0.9659258127212524,0.9659258127212524],"min":[-0.9659258127212524,-0.9659258127212524,-0.9659258127212524],"type":"VEC3"},{"bufferView":6,"componentType":5126,"count":264,"max":[0.26794999837875366,0.25882500410079956],"min":[0,0],"type":"VEC2"},{"bufferView":7,"componentType":5123,"count":360,"max":[263],"min":[0],"type":"SCALAR"},{"bufferView":8,"componentType":5126,"count":264,"max":[0.25,0.125,0.125],"min":[-0.25,-0.125,-0.125],"type":"VEC3"},{"bufferView":9,"componentType":5126,"count":264,"max":[0.8814123868942261,0.9911444187164307,0.9659258127212524],"min":[-0.8814123868942261,-0.9911444187164307,-0.9659258127212524],"type":"VEC3"},{"bufferView":10,"componentType":5126,"count":264,"max":[0.26794999837875366,0.25882500410079956],"min":[0,0],"type":"VEC2"},{"bufferView":11,"componentType":5123,"count":360,"max":[263],"min":[0],"type":"SCALAR"},{"bufferView":12,"componentType":5126,"count":264,"max":[0.25,0.125,0.125],"min":[-0.25,-0.125,-0.125],"type":"VEC3"},{"bufferView":13,"componentType":5126,"count":264,"max":[0.8814123868942261,0.9911444187164307,0.9659258127212524],"min":[-0.8814123868942261,-0.9911444187164307,-0.9659258127212524],"type":"VEC3"},{"bufferView":14,"componentType":5126,"count":264,"max":[0.26794999837875366,0.25882500410079956],"min":[0,0],"type":"VEC2"},{"bufferView":15,"componentType":5123,"count":360,"max":[263],"min":[0],"type":"SCALAR"},{"bufferView":16,"componentType":5126,"count":264,"max":[0.125,0.125,0.125],"min":[-0.125,-0.125,-0.125],"type":"VEC3"},{"bufferView":17,"componentType":5126,"count":264,"max":[0.9659258127212524,0.9659258127212524,0.9659258127212524],"min":[-0.9659258127212524,-0.9659258127212524,-0.9659258127212524],"type":"VEC3"},{"bufferView":18,"componentType":5126,"count":264,"max":[0.26794999837875366,0.25882500410079956],"min":[0,0],"type":"VEC2"},{"bufferView":19,"componentType":5123,"count":360,"max":[263],"min":[0],"type":"SCALAR"},{"bufferView":20,"componentType":5126,"count":264,"max":[0.125,0.125,0.125],"min":[-0.125,-0.125,-0.125],"type":"VEC3"},{"bufferView":21,"componentType":5126,"count":264,"max":[0.9659258127212524,0.9659258127212524,0.9659258127212524],"min":[-0.9659258127212524,-0.9659258127212524,-0.9659258127212524],"type":"VEC3"},{"bufferView":22,"componentType":5126,"count":264,"max":[0.26794999837875366,0.25882500410079956],"min":[0,0],"type":"VEC2"},{"bufferView":23,"componentType":5123,"count":360,"max":[263],"min":[0],"type":"SCALAR"},{"bufferView":24,"componentType":5126,"count":264,"max":[0.125,0.125,0.125],"min":[-0.125,-0.125,-0.125],"type":"VEC3"},{"bufferView":25,"componentType":5126,"count":264,"max":[0.9659258127212524,0.9659258127212524,0.9659258127212524],"min":[-0.9659258127212524,-0.9659258127212524,-0.9659258127212524],"type":"VEC3"},{"bufferView":26,"componentType":5126,"count":264,"max":[0.26794999837875366,0.25882500410079956],"min":[0,0],"type":"VEC2"},{"bufferView":27,"componentType":5123,"count":360,"max":[263],"min":[0],"type":"SCALAR"},{"bufferView":28,"componentType":5126,"count":264,"max":[0.15625,0.15625,0.15625],"min":[-0.15625,-0.15625,-0.15625],"type":"VEC3"},{"bufferView":29,"componentType":5126,"count":264,"max":[0.9659258127212524,0.9659258127212524,0.9659258127212524],"min":[-0.9659258127212524,-0.9659258127212524,-0.9659258127212524],"type":"VEC3"},{"bufferView":30,"componentType":5126,"count":264,"max":[0.26794999837875366,0.25882500410079956],"min":[0,0],"type":"VEC2"},{"bufferView":31,"componentType":5123,"count":360,"max":[263],"min":[0],"type":"SCALAR"},{"bufferView":32,"componentType":5126,"count":264,"max":[0.15625,0.15625,0.15625],"min":[-0.15625,-0.15625,-0.15625],"type":"VEC3"},{"bufferView":33,"componentType":5126,"count":264,"max":[0.9659258127212524,0.9659258127212524,0.9659258127212524],"min":[-0.9659258127212524,-0.9659258127212524,-0.9659258127212524],"type":"VEC3"},{"bufferView":34,"componentType":5126,"count":264,"max":[0.26794999837875366,0.25882500410079956],"min":[0,0],"type":"VEC2"},{"bufferView":35,"componentType":5123,"count":360,"max":[263],"min":[0],"type":"SCALAR"},{"bufferView":36,"componentType":5126,"count":264,"max":[0.125,0.125,0.125],"min":[-0.125,-0.125,-0.125],"type":"VEC3"},{"bufferView":37,"componentType":5126,"count":264,"max":[0.9659258127212524,0.9659258127212524,0.9659258127212524],"min":[-0.9659258127212524,-0.9659258127212524,-0.9659258127212524],"type":"VEC3"},{"bufferView":38,"componentType":5126,"count":264,"max":[0.26794999837875366,0.25882500410079956],"min":[0,0],"type":"VEC2"},{"bufferView":39,"componentType":5123,"count":360,"max":[263],"min":[0],"type":"SCALAR"},{"bufferView":40,"componentType":5126,"count":264,"max":[0.125,0.125,0.125],"min":[-0.125,-0.125,-0.125],"type":"VEC3"},{"bufferView":41,"componentType":5126,"count":264,"max":[0.9659258127212524,0.9659258127212524,0.9659258127212524],"min":[-0.9659258127212524,-0.9659258127212524,-0.9659258127212524],"type":"VEC3"},{"bufferView":42,"componentType":5126,"count":264,"max":[0.26794999837875366,0.25882500410079956],"min":[0,0],"type":"VEC2"},{"bufferView":43,"componentType":5123,"count":360,"max":[263],"min":[0],"type":"SCALAR"},{"bufferView":44,"componentType":5126,"count":264,"max":[0.125,0.125,0.125],"min":[-0.125,-0.125,-0.125],"type":"VEC3"},{"bufferView":45,"componentType":5126,"count":264,"max":[0.9659258127212524,0.9659258127212524,0.9659258127212524],"min":[-0.9659258127212524,-0.9659258127212524,-0.9659258127212524],"type":"VEC3"},{"bufferView":46,"componentType":5126,"count":264,"max":[0.26794999837875366,0.25882500410079956],"min":[0,0],"type":"VEC2"},{"bufferView":47,"componentType":5123,"count":360,"max":[263],"min":[0],"type":"SCALAR"},{"bufferView":48,"componentType":5126,"count":24,"max":[0.09375,0.25,0.09375],"min":[-0.09375,-0.25,-0.09375],"type":"VEC3"},{"bufferView":49,"componentType":5126,"count":24,"max":[1,1,1],"min":[-1,-1,-1],"type":"VEC3"},{"bufferView":50,"componentType":5126,"count":24,"max":[1,1],"min":[0,0],"type":"VEC2"},{"bufferView":51,"componentType":5123,"count":36,"max":[23],"min":[0],"type":"SCALAR"},{"bufferView":52,"componentType":5126,"count":24,"max":[0.09375,0.25,0.09375],"min":[-0.09375,-0.25,-0.09375],"type":"VEC3"},{"bufferView":53,"componentType":5126,"count":24,"max":[1,1,1],"min":[-1,-1,-1],"type":"VEC3"},{"bufferView":54,"componentType":5126,"count":24,"max":[1,1],"min":[0,0],"type":"VEC2"},{"bufferView":55,"componentType":5123,"count":36,"max":[23],"min":[0],"type":"SCALAR"},{"bufferView":56,"componentType":5126,"count":24,"max":[0.09375,0.25,0.09375],"min":[-0.09375,-0.25,-0.09375],"type":"VEC3"},{"bufferView":57,"componentType":5126,"count":24,"max":[1,1,1],"min":[-1,-1,-1],"type":"VEC3"},{"bufferView":58,"componentType":5126,"count":24,"max":[1,1],"min":[0,0],"type":"VEC2"},{"bufferView":59,"componentType":5123,"count":36,"max":[23],"min":[0],"type":"SCALAR"},{"bufferView":60,"componentType":5126,"count":24,"max":[0.09375,0.25,0.09375],"min":[-0.09375,-0.25,-0.09375],"type":"VEC3"},{"bufferView":61,"componentType":5126,"count":24,"max":[1,1,1],"min":[-1,-1,-1],"type":"VEC3"},{"bufferView":62,"componentType":5126,"count":24,"max":[1,1],"min":[0,0],"type":"VEC2"},{"bufferView":63,"componentType":5123,"count":36,"max":[23],"min":[0],"type":"SCALAR"},{"bufferView":64,"componentType":5126,"count":24,"max":[0.09375,0.28125,0.125],"min":[-0.09375,0.21875,-0.125],"type":"VEC3"},{"bufferView":65,"componentType":5126,"count":24,"max":[1,1,1],"min":[-1,-1,-1],"type":"VEC3"},{"bufferView":66,"componentType":5126,"count":24,"max":[1,1],"min":[0,0],"type":"VEC2"},{"bufferView":67,"componentType":5123,"count":36,"max":[23],"min":[0],"type":"SCALAR"},{"bufferView":68,"componentType":5126,"count":24,"max":[0.09375,0.28125,0.125],"min":[-0.09375,0.21875,-0.125],"type":"VEC3"},{"bufferView":69,"componentType":5126,"count":24,"max":[1,1,1],"min":[-1,-1,-1],"type":"VEC3"},{"bufferView":70,"componentType":5126,"count":24,"max":[1,1],"min":[0,0],"type":"VEC2"},{"bufferView":71,"componentType":5123,"count":36,"max":[23],"min":[0],"type":"SCALAR"},{"bufferView":72,"componentType":5126,"count":96,"max":[0.125,0.5,0.125],"min":[-0.125,0,-0.125],"type":"VEC3"},{"bufferView":73,"componentType":5126,"count":96,"max":[1,1,1],"min":[-1,-1,-1],"type":"VEC3"},{"bufferView":74,"componentType":5126,"count":96,"max":[0.75,0.75],"min":[0,0],"type":"VEC2"},{"bufferView":75,"componentType":5123,"count":132,"max":[95],"min":[0],"type":"SCALAR"},{"bufferView":76,"componentType":5126,"count":96,"max":[0.125,0.5,0.125],"min":[-0.125,0,-0.125],"type":"VEC3"},{"bufferView":77,"componentType":5126,"count":96,"max":[1,1,1],"min":[-1,-1,-1],"type":"VEC3"},{"bufferView":78,"componentType":5126,"count":96,"max":[0.75,0.75],"min":[0,0],"type":"VEC2"},{"bufferView":79,"componentType":5123,"count":132,"max":[95],"min":[0],"type":"SCALAR"},{"bufferView":80,"componentType":5126,"count":96,"max":[0.125,0.5,0.125],"min":[-0.125,0,-0.125],"type":"VEC3"},{"bufferView":81,"componentType":5126,"count":96,"max":[1,1,1],"min":[-1,-1,-1],"type":"VEC3"},{"bufferView":82,"componentType":5126,"count":96,"max":[0.75,0.75],"min":[0,0],"type":"VEC2"},{"bufferView":83,"componentType":5123,"count":132,"max":[95],"min":[0],"type":"SCALAR"},{"bufferView":84,"componentType":5126,"count":96,"max":[0.125,0.5,0.125],"min":[-0.125,0,-0.125],"type":"VEC3"},{"bufferView":85,"componentType":5126,"count":96,"max":[1,1,1],"min":[-1,-1,-1],"type":"VEC3"},{"bufferView":86,"componentType":5126,"count":96,"max":[0.75,0.75],"min":[0,0],"type":"VEC2"},{"bufferView":87,"componentType":5123,"count":132,"max":[95],"min":[0],"type":"SCALAR"}],"materials":[{"pbrMetallicRoughness":{"metallicFactor":0,"roughnessFactor":1},"alphaMode":"MASK","alphaCutoff":0.05,"doubleSided":true},{"pbrMetallicRoughness":{"metallicFactor":0,"roughnessFactor":1},"alphaMode":"MASK","alphaCutoff":0.05,"doubleSided":true}],"meshes":[{"primitives":[{"mode":4,"attributes":{"POSITION":0,"NORMAL":1,"TEXCOORD_0":2},"indices":3,"material":0}]},{"primitives":[{"mode":4,"attributes":{"POSITION":4,"NORMAL":5,"TEXCOORD_0":6},"indices":7,"material":0}]},{"primitives":[{"mode":4,"attributes":{"POSITION":8,"NORMAL":9,"TEXCOORD_0":10},"indices":11,"material":0}]},{"primitives":[{"mode":4,"attributes":{"POSITION":12,"NORMAL":13,"TEXCOORD_0":14},"indices":15,"material":0}]},{"primitives":[{"mode":4,"attributes":{"POSITION":16,"NORMAL":17,"TEXCOORD_0":18},"indices":19,"material":0}]},{"primitives":[{"mode":4,"attributes":{"POSITION":20,"NORMAL":21,"TEXCOORD_0":22},"indices":23,"material":0}]},{"primitives":[{"mode":4,"attributes":{"POSITION":24,"NORMAL":25,"TEXCOORD_0":26},"indices":27,"material":0}]},{"primitives":[{"mode":4,"attributes":{"POSITION":28,"NORMAL":29,"TEXCOORD_0":30},"indices":31,"material":0}]},{"primitives":[{"mode":4,"attributes":{"POSITION":32,"NORMAL":33,"TEXCOORD_0":34},"indices":35,"material":0}]},{"primitives":[{"mode":4,"attributes":{"POSITION":36,"NORMAL":37,"TEXCOORD_0":38},"indices":39,"material":0}]},{"primitives":[{"mode":4,"attributes":{"POSITION":40,"NORMAL":41,"TEXCOORD_0":42},"indices":43,"material":0}]},{"primitives":[{"mode":4,"attributes":{"POSITION":44,"NORMAL":45,"TEXCOORD_0":46},"indices":47,"material":0}]},{"primitives":[{"mode":4,"attributes":{"POSITION":48,"NORMAL":49,"TEXCOORD_0":50},"indices":51,"material":0}]},{"primitives":[{"mode":4,"attributes":{"POSITION":52,"NORMAL":53,"TEXCOORD_0":54},"indices":55,"material":0}]},{"primitives":[{"mode":4,"attributes":{"POSITION":56,"NORMAL":57,"TEXCOORD_0":58},"indices":59,"material":0}]},{"primitives":[{"mode":4,"attributes":{"POSITION":60,"NORMAL":61,"TEXCOORD_0":62},"indices":63,"material":0}]},{"primitives":[{"mode":4,"attributes":{"POSITION":64,"NORMAL":65,"TEXCOORD_0":66},"indices":67,"material":1}]},{"primitives":[{"mode":4,"attributes":{"POSITION":68,"NORMAL":69,"TEXCOORD_0":70},"indices":71,"material":1}]},{"primitives":[{"mode":4,"attributes":{"POSITION":72,"NORMAL":73,"TEXCOORD_0":74},"indices":75,"material":1}]},{"primitives":[{"mode":4,"attributes":{"POSITION":76,"NORMAL":77,"TEXCOORD_0":78},"indices":79,"material":1}]},{"primitives":[{"mode":4,"attributes":{"POSITION":80,"NORMAL":81,"TEXCOORD_0":82},"indices":83,"material":1}]},{"primitives":[{"mode":4,"attributes":{"POSITION":84,"NORMAL":85,"TEXCOORD_0":86},"indices":87,"material":1}]}]}